<?xml version="1.0" encoding="utf-8"?>
<!-- Generator: Adobe Illustrator 27.2.0, SVG Export Plug-In . SVG Version: 6.00 Build 0)  -->
<svg version="1.1" id="Слой_1" xmlns="http://www.w3.org/2000/svg" xmlns:xlink="http://www.w3.org/1999/xlink" x="0px" y="0px"
	 viewBox="0 0 1000 1000" style="enable-background:new 0 0 1000 1000;" xml:space="preserve">
<style type="text/css">
	.st0{fill-rule:evenodd;clip-rule:evenodd;fill:#FFFFFF;}
</style>
<g id="Artboard">
	<path id="Path-3" class="st0" d="M65.2,473.2c246.1-107.2,410.2-177.9,492.2-212c234.5-97.6,283.1-114.4,314.8-114.9
		c6.9-0.2,22.6,1.7,32.7,9.8c8.6,6.9,11,16.2,12,22.8c1,6.6,2.5,21.6,1.4,33.3c-12.7,133.5-67.7,457.3-95.5,606.8
		c-11.8,63.3-35.1,84.4-57.7,86.6C716,910,678.7,873,631.3,842C557,793.4,515,763,442.9,715.4c-83.4-54.9-29.4-85.1,18.2-134.4
		c12.5-12.8,228.4-209.3,232.6-227.2c0.5-2.2,1-10.5-3.9-14.9c-4.9-4.4-12.2-2.9-17.6-1.7c-7.4,1.7-126.1,80.2-356,235.3
		c-33.8,23.1-64.1,34.4-91.5,33.8c-30.2-0.7-88.1-17-131.2-31.1c-52.8-17.2-94.9-26.3-91.1-55.4C4.4,504.6,25.4,489,65.2,473.2z"/>
</g>
</svg>
